<?xml version="1.0"?>
<svg xmlns="http://www.w3.org/2000/svg" height="512px" viewBox="0 -6 512 512" width="512px"><g><path d="m7.695312 207.058594c4.246094 0 7.695313-3.449219 7.695313-7.695313v-173.167969c0-5.960937 4.84375-10.804687 10.804687-10.804687h259.488282c4.246094 0 7.695312-3.449219 7.695312-7.695313 0-4.246093-3.449218-7.695312-7.695312-7.695312h-259.488282c-14.445312 0-26.195312 11.75-26.195312 26.195312v173.167969c0 4.246094 3.449219 7.695313 7.695312 7.695313zm0 0" data-original="#000000" class="active-path" data-old_color="#000000" fill="#FFFFFF"/><path d="m485.804688 0h-169.339844c-4.246094 0-7.695313 3.449219-7.695313 7.695312 0 4.246094 3.449219 7.695313 7.695313 7.695313h169.339844c5.960937 0 10.804687 4.84375 10.804687 10.804687v266.84375c-9.746094 0-468.785156 0-481.21875 0v-62.894531c0-4.25-3.449219-7.695312-7.695313-7.695312-4.246093 0-7.695312 3.445312-7.695312 7.695312v116.261719c0 14.445312 11.75 26.195312 26.195312 26.195312h183.859376l-14.644532 72.878907h-29.960937c-10.882813 0-19.75 8.867187-19.75 19.753906v15.390625c0 10.882812 8.867187 19.75 19.75 19.75h181.101562c10.882813 0 19.75-8.867188 19.75-19.75v-15.390625c0-10.886719-8.867187-19.753906-19.75-19.753906h-29.960937l-14.644532-72.878907h183.859376c14.445312 0 26.195312-11.75 26.195312-26.195312 0-6.203125 0-317.019531 0-320.210938 0-14.445312-11.75-26.195312-26.195312-26.195312zm-139.253907 460.871094c2.398438 0 4.359375 1.960937 4.359375 4.363281v15.390625c0 2.398438-1.960937 4.359375-4.359375 4.359375h-181.101562c-2.398438 0-4.359375-1.960937-4.359375-4.359375v-15.390625c0-2.402344 1.960937-4.363281 4.359375-4.363281zm-135.441406-15.390625 14.644531-72.878907h60.492188l14.644531 72.878907zm285.5-99.074219c0 5.960938-4.84375 10.804688-10.804687 10.804688-4.648438 0-449.328126 0-459.609376 0-5.960937 0-10.804687-4.84375-10.804687-10.804688v-37.976562h481.21875zm0 0" data-original="#000000" class="active-path" data-old_color="#000000" fill="#FFFFFF"/><path d="m458.902344 352.953125c11.101562 0 20.136718-9.03125 20.136718-20.132813 0-11.105468-9.035156-20.136718-20.136718-20.136718-11.101563 0-20.136719 9.03125-20.136719 20.136718 0 11.101563 9.035156 20.132813 20.136719 20.132813zm0-24.878906c2.617187 0 4.746094 2.128906 4.746094 4.746093 0 2.613282-2.128907 4.742188-4.746094 4.742188-2.617188 0-4.746094-2.128906-4.746094-4.742188 0-2.617187 2.128906-4.746093 4.746094-4.746093zm0 0" data-original="#000000" class="active-path" data-old_color="#000000" fill="#FFFFFF"/><path d="m406.058594 352.953125c11.101562 0 20.144531-9.03125 20.144531-20.132813 0-11.101562-9.042969-20.140624-20.144531-20.140624-11.101563 0-20.140625 9.039062-20.140625 20.140624 0 11.101563 9.039062 20.132813 20.140625 20.132813zm0-24.882813c2.617187 0 4.753906 2.132813 4.753906 4.75 0 2.617188-2.136719 4.742188-4.753906 4.742188-2.613282 0-4.75-2.125-4.75-4.742188 0-2.617187 2.136718-4.75 4.75-4.75zm0 0" data-original="#000000" class="active-path" data-old_color="#000000" fill="#FFFFFF"/><path d="m391.769531 261.304688h68.671875c9.476563 0 17.1875-7.710938 17.1875-17.1875v-180.070313c0-9.476563-7.710937-17.1875-17.1875-17.1875h-408.882812c-9.476563 0-17.1875 7.710937-17.1875 17.1875v180.070313c0 9.476562 7.710937 17.1875 17.1875 17.1875h309.429687c4.25 0 7.695313-3.445313 7.695313-7.695313s-3.445313-7.695313-7.695313-7.695313h-309.429687c-.988282 0-1.796875-.804687-1.796875-1.796874v-180.070313c0-.992187.808593-1.796875 1.796875-1.796875h408.882812c.988282 0 1.796875.804688 1.796875 1.796875v180.070313c0 .992187-.808593 1.796874-1.796875 1.796874h-68.671875c-4.25 0-7.695312 3.445313-7.695312 7.695313s3.445312 7.695313 7.695312 7.695313zm0 0" data-original="#000000" class="active-path" data-old_color="#000000" fill="#FFFFFF"/><path d="m401.699219 96.273438h-291.398438c-6.792969 0-12.3125 5.519531-12.3125 12.3125v90.992187c0 6.792969 5.519531 12.3125 12.3125 12.3125h276.355469l3.808594 14.210937c2.265625 8.484376 12.867187 11.246094 19.011718 5.097657l6.257813-6.246094 6.457031 6.453125c4.050782 4.0625 9.386719 6.082031 14.710938 6.082031 18.480468 0 27.808594-22.4375 14.726562-35.519531l-6.457031-6.453125 6.25-6.25c6.1875-6.1875 3.304687-16.777344-5.097656-19.023437l-32.3125-8.660157v-52.996093c0-6.792969-5.519531-12.3125-12.3125-12.3125zm-12.660157 58.621093c-8.375-2.25-16.203124 5.414063-13.925781 13.921875l7.417969 27.683594h-269.152344v-84.835938h285.242188v45.792969zm53.292969 61.796875c0 4.855469-5.910156 7.214844-9.257812 3.828125l-6.460938-6.453125 7.671875-7.664062 6.457032 6.453125c1.023437 1.023437 1.589843 2.390625 1.589843 3.835937zm-6.722656-33.386718c-3.886719 3.886718-28.359375 28.359374-32.082031 32.085937-.011719-.039063-11.433594-42.617187-11.75-43.824219 0 0 43.832031 11.738282 43.832031 11.738282zm0 0" data-original="#000000" class="active-path" data-old_color="#000000" fill="#FFFFFF"/><path d="m152.644531 145.421875c-4.296875-1.898437-7.695312-3.394531-7.695312-5.765625 0-4.054688 8.214843-4.910156 14.027343-1.878906 1.160157.597656 2.246094 1.160156 3.632813 1.160156 4.175781 0 5.910156-4.875 5.910156-7.488281 0-7.574219-13.925781-7.964844-16.714843-7.964844-9.789063 0-21.207032 4.546875-21.207032 17.351563 0 18.972656 24.992188 17.972656 24.992188 26.328124 0 3.089844-3.570313 4.1875-6.628906 4.1875-7.011719 0-9.09375-5.839843-13.398438-5.839843-3.703125 0-6.382812 4.566406-6.382812 7.644531 0 13.117188 40.753906 19.335938 40.753906-7.253906 0-12.855469-9.992188-17.257813-17.289063-20.480469zm0 0" data-original="#000000" class="active-path" data-old_color="#000000" fill="#FFFFFF"/><path d="m201.15625 128.6875v35.800781c0 4.554688-2.195312 6.863281-6.535156 6.863281s-6.546875-2.308593-6.546875-6.863281v-35.800781c0-3.261719-3.601563-4.730469-7.171875-4.730469-4.359375 0-7.179688 1.859375-7.179688 4.730469v35.800781c0 12.660157 7.417969 19.636719 20.898438 19.636719 13.472656 0 20.890625-6.976562 20.890625-19.636719v-35.800781c0-6.296875-14.355469-6.40625-14.355469 0zm0 0" data-original="#000000" class="active-path" data-old_color="#000000" fill="#FFFFFF"/><path d="m255.683594 151.28125c3.496094-2.402344 5.40625-6.667969 5.40625-12.261719 0-9.851562-5.808594-15.0625-16.796875-15.0625h-16.160157c-3.078124 0-6.394531 1.507813-6.394531 4.8125v50.144531c0 2.359376 2.199219 4.730469 6.394531 4.730469h17.492188c10.886719 0 16.878906-6.382812 16.878906-17.976562v-1.652344c0-7.675781-3.199218-10.917969-6.820312-12.734375zm-19.671875-14.550781h7.253906c4.589844 0 4.664063 8.90625 0 8.90625h-7.253906zm0 34.136719v-13.707032c9.246093 0 12.140625-1.277344 12.140625 7.480469 0 7.457031-4.625 6.226563-12.140625 6.226563zm0 0" data-original="#000000" class="active-path" data-old_color="#000000" fill="#FFFFFF"/><path d="m309.335938 123.957031c-7.847657 0-7.75 2-17.660157 19.300781-9.882812-17.285156-9.796875-19.300781-17.660156-19.300781-3.3125 0-7.171875 1.878907-7.171875 7.183594v47.699219c0 6.402344 14.347656 6.410156 14.347656 0v-26.335938l5.558594 10.175782c2.015625 3.859374 7.550781 3.75 9.757812.042968l5.652344-9.667968v25.785156c0 6.402344 14.355469 6.40625 14.355469 0v-47.699219c0-5.296875-3.703125-7.183594-7.179687-7.183594zm0 0" data-original="#000000" class="active-path" data-old_color="#000000" fill="#FFFFFF"/><path d="m330.152344 123.957031c-4.359375 0-7.171875 1.859375-7.171875 4.730469v50.152344c0 3.304687 3.714843 4.804687 7.171875 4.804687 3.457031 0 7.183594-1.5 7.183594-4.804687v-50.152344c0-2.871094-2.824219-4.730469-7.183594-4.730469zm0 0" data-original="#000000" class="active-path" data-old_color="#000000" fill="#FFFFFF"/><path d="m378.960938 123.957031h-34.0625c-3.253907 0-4.730469 3.355469-4.730469 6.464844 0 3.910156 1.949219 6.628906 4.730469 6.628906h9.859374v41.789063c0 3.304687 3.714844 4.804687 7.171876 4.804687 3.457031 0 7.171874-1.5 7.171874-4.804687v-41.789063h9.859376c2.78125 0 4.730468-2.71875 4.730468-6.628906 0-3.109375-1.476562-6.464844-4.730468-6.464844zm0 0" data-original="#000000" class="active-path" data-old_color="#000000" fill="#FFFFFF"/></g> </svg>
