<?xml version="1.0"?>
<svg xmlns="http://www.w3.org/2000/svg" height="512px" viewBox="0 0 512 512" width="512px"><g><path d="m44.136719 282.484375h105.933593c4.875 0 8.828126 3.949219 8.828126 8.824219v17.65625c0 4.875-3.953126 8.828125-8.828126 8.828125h-105.933593c-4.875 0-8.828125-3.953125-8.828125-8.828125v-17.65625c0-4.875 3.953125-8.824219 8.828125-8.824219zm0 0" data-original="#000000" class="active-path" data-old_color="#000000" fill="#FFFFFF"/><path d="m238.34375 211.863281h17.65625c4.875 0 8.828125 3.949219 8.828125 8.828125v17.652344c0 4.875-3.953125 8.828125-8.828125 8.828125h-17.65625c-4.875 0-8.828125-3.953125-8.828125-8.828125v-17.652344c0-4.878906 3.953125-8.828125 8.828125-8.828125zm0 0" data-original="#000000" class="active-path" data-old_color="#000000" fill="#FFFFFF"/><path d="m238.34375 141.242188h17.65625c4.875 0 8.828125 3.953124 8.828125 8.828124v17.652344c0 4.875-3.953125 8.828125-8.828125 8.828125h-17.65625c-4.875 0-8.828125-3.953125-8.828125-8.828125v-17.652344c0-4.875 3.953125-8.828124 8.828125-8.828124zm0 0" data-original="#000000" class="active-path" data-old_color="#000000" fill="#FFFFFF"/><path d="m238.34375 70.621094h17.65625c4.875 0 8.828125 3.953125 8.828125 8.828125v17.652343c0 4.878907-3.953125 8.828126-8.828125 8.828126h-17.65625c-4.875 0-8.828125-3.949219-8.828125-8.828126v-17.652343c0-4.875 3.953125-8.828125 8.828125-8.828125zm0 0" data-original="#000000" class="active-path" data-old_color="#000000" fill="#FFFFFF"/><path d="m238.34375 0h17.65625c4.875 0 8.828125 3.953125 8.828125 8.828125v17.65625c0 4.875-3.953125 8.824219-8.828125 8.824219h-17.65625c-4.875 0-8.828125-3.949219-8.828125-8.824219v-17.65625c0-4.875 3.953125-8.828125 8.828125-8.828125zm0 0" data-original="#000000" class="active-path" data-old_color="#000000" fill="#FFFFFF"/><path d="m308.964844 211.863281h17.65625c4.875 0 8.828125 3.949219 8.828125 8.828125v17.652344c0 4.875-3.953125 8.828125-8.828125 8.828125h-17.65625c-4.875 0-8.828125-3.953125-8.828125-8.828125v-17.652344c0-4.878906 3.953125-8.828125 8.828125-8.828125zm0 0" data-original="#000000" class="active-path" data-old_color="#000000" fill="#FFFFFF"/><path d="m308.964844 70.621094h17.65625c4.875 0 8.828125 3.953125 8.828125 8.828125v17.652343c0 4.878907-3.953125 8.828126-8.828125 8.828126h-17.65625c-4.875 0-8.828125-3.949219-8.828125-8.828126v-17.652343c0-4.875 3.953125-8.828125 8.828125-8.828125zm0 0" data-original="#000000" class="active-path" data-old_color="#000000" fill="#FFFFFF"/><path d="m379.585938 141.242188h17.65625c4.875 0 8.828124 3.953124 8.828124 8.828124v17.652344c0 4.875-3.953124 8.828125-8.828124 8.828125h-17.65625c-4.875 0-8.828126-3.953125-8.828126-8.828125v-17.652344c0-4.875 3.953126-8.828124 8.828126-8.828124zm0 0" data-original="#000000" class="active-path" data-old_color="#000000" fill="#FFFFFF"/><path d="m379.585938 0h17.65625c4.875 0 8.828124 3.953125 8.828124 8.828125v17.65625c0 4.875-3.953124 8.824219-8.828124 8.824219h-17.65625c-4.875 0-8.828126-3.949219-8.828126-8.824219v-17.65625c0-4.875 3.953126-8.828125 8.828126-8.828125zm0 0" data-original="#000000" class="active-path" data-old_color="#000000" fill="#FFFFFF"/><path d="m450.207031 211.863281h17.65625c4.875 0 8.828125 3.949219 8.828125 8.828125v17.652344c0 4.875-3.953125 8.828125-8.828125 8.828125h-17.65625c-4.875 0-8.828125-3.953125-8.828125-8.828125v-17.652344c0-4.878906 3.953125-8.828125 8.828125-8.828125zm0 0" data-original="#000000" class="active-path" data-old_color="#000000" fill="#FFFFFF"/><path d="m238.34375 282.484375h17.65625c4.875 0 8.828125 3.949219 8.828125 8.824219v17.65625c0 4.875-3.953125 8.828125-8.828125 8.828125h-17.65625c-4.875 0-8.828125-3.953125-8.828125-8.828125v-17.65625c0-4.875 3.953125-8.824219 8.828125-8.824219zm0 0" data-original="#000000" class="active-path" data-old_color="#000000" fill="#FFFFFF"/><path d="m379.585938 282.484375h17.65625c4.875 0 8.828124 3.949219 8.828124 8.824219v17.65625c0 4.875-3.953124 8.828125-8.828124 8.828125h-17.65625c-4.875 0-8.828126-3.953125-8.828126-8.828125v-17.65625c0-4.875 3.953126-8.824219 8.828126-8.824219zm0 0" data-original="#000000" class="active-path" data-old_color="#000000" fill="#FFFFFF"/><path d="m308.964844 353.101562h17.65625c4.875 0 8.828125 3.953126 8.828125 8.828126v17.65625c0 4.875-3.953125 8.828124-8.828125 8.828124h-17.65625c-4.875 0-8.828125-3.953124-8.828125-8.828124v-17.65625c0-4.875 3.953125-8.828126 8.828125-8.828126zm0 0" data-original="#000000" class="active-path" data-old_color="#000000" fill="#FFFFFF"/><path d="m379.585938 423.722656h17.65625c4.875 0 8.828124 3.953125 8.828124 8.828125v17.65625c0 4.875-3.953124 8.828125-8.828124 8.828125h-17.65625c-4.875 0-8.828126-3.953125-8.828126-8.828125v-17.65625c0-4.875 3.953126-8.828125 8.828126-8.828125zm0 0" data-original="#000000" class="active-path" data-old_color="#000000" fill="#FFFFFF"/><path d="m450.207031 70.621094h17.65625c4.875 0 8.828125 3.953125 8.828125 8.828125v17.652343c0 4.878907-3.953125 8.828126-8.828125 8.828126h-17.65625c-4.875 0-8.828125-3.949219-8.828125-8.828126v-17.652343c0-4.875 3.953125-8.828125 8.828125-8.828125zm0 0" data-original="#000000" class="active-path" data-old_color="#000000" fill="#FFFFFF"/><path d="m450.207031 353.101562h17.65625c4.875 0 8.828125 3.953126 8.828125 8.828126v17.65625c0 4.875-3.953125 8.828124-8.828125 8.828124h-17.65625c-4.875 0-8.828125-3.953124-8.828125-8.828124v-17.65625c0-4.875 3.953125-8.828126 8.828125-8.828126zm0 0" data-original="#000000" class="active-path" data-old_color="#000000" fill="#FFFFFF"/><path d="m450.207031 0h17.65625c4.875 0 8.828125 3.953125 8.828125 8.828125v17.65625c0 4.875-3.953125 8.824219-8.828125 8.824219h-17.65625c-4.875 0-8.828125-3.949219-8.828125-8.824219v-17.65625c0-4.875 3.953125-8.828125 8.828125-8.828125zm0 0" data-original="#000000" class="active-path" data-old_color="#000000" fill="#FFFFFF"/><path d="m17.65625 512h476.6875c9.738281-.027344 17.628906-7.917969 17.65625-17.65625v-247.171875c-.027344-9.738281-7.917969-17.625-17.65625-17.65625v8.828125c-.042969 14.609375-11.875 26.441406-26.480469 26.484375h-17.65625c-14.609375-.042969-26.441406-11.875-26.484375-26.484375v-8.828125h-70.621094v8.828125c-.039062 14.609375-11.871093 26.441406-26.480468 26.484375h-17.65625c-14.609375-.042969-26.4375-11.875-26.480469-26.484375-.042969 14.609375-11.875 26.441406-26.484375 26.484375 14.609375.042969 26.441406 11.875 26.484375 26.480469v17.65625c-.042969 14.609375-11.875 26.441406-26.484375 26.484375h-17.65625c-14.605469-.042969-26.4375-11.875-26.480469-26.484375v-17.65625c.042969-14.605469 11.875-26.4375 26.480469-26.480469-14.605469-.042969-26.4375-11.875-26.480469-26.484375v-8.828125h-6.710937c-7.019532-.019531-13.742188-2.8125-18.714844-7.765625l-19.773438-19.773438c-4.96875-4.957031-11.695312-7.75-18.714843-7.769531h-101.691407c-7.019531.019531-13.746093 2.8125-18.714843 7.769531l-19.773438 19.773438c-4.957031 4.96875-7.7499998 11.695312-7.769531 18.714844v253.878906c.0273438 9.738281 7.917969 17.628906 17.65625 17.65625zm406.066406-61.792969c-.042968 14.609375-11.871094 26.441407-26.480468 26.484375h-17.65625c-14.609376-.042968-26.441407-11.875-26.484376-26.484375v-17.65625c.042969-14.605469 11.875-26.4375 26.484376-26.480469h17.65625c14.609374.042969 26.4375 11.875 26.480468 26.480469zm26.484375-114.757812h17.65625c14.605469.042969 26.4375 11.875 26.480469 26.480469v17.65625c-.042969 14.609374-11.875 26.441406-26.480469 26.484374h-17.65625c-14.609375-.042968-26.441406-11.875-26.484375-26.484374v-17.65625c.042969-14.605469 11.875-26.4375 26.484375-26.480469zm-97.105469-44.140625c.042969-14.605469 11.875-26.4375 26.484376-26.480469h17.65625c14.609374.042969 26.4375 11.875 26.480468 26.480469v17.65625c-.042968 14.609375-11.871094 26.441406-26.480468 26.484375h-17.65625c-14.609376-.042969-26.441407-11.875-26.484376-26.484375zm-70.617187 70.621094c.042969-14.605469 11.871094-26.4375 26.480469-26.480469h17.65625c14.609375.042969 26.441406 11.875 26.480468 26.480469v17.65625c-.039062 14.609374-11.871093 26.441406-26.480468 26.484374h-17.65625c-14.609375-.042968-26.4375-11.875-26.480469-26.484374zm-176.554687 123.585937h-70.621094c-4.875 0-8.824219-3.949219-8.824219-8.824219 0-4.878906 3.949219-8.828125 8.824219-8.828125h70.621094c4.875 0 8.828124 3.949219 8.828124 8.828125 0 4.875-3.953124 8.824219-8.828124 8.824219zm123.585937-52.964844c4.878906 0 8.828125 3.953125 8.828125 8.828125s-3.949219 8.828125-8.828125 8.828125h-194.207031c-4.875 0-8.824219-3.953125-8.824219-8.828125s3.949219-8.828125 8.824219-8.828125zm-203.03125-26.480469c.011719-4.871093 3.957031-8.816406 8.824219-8.828124h123.589844c4.875 0 8.824218 3.953124 8.824218 8.828124s-3.949218 8.828126-8.824218 8.828126h-123.589844c-4.867188-.015626-8.8125-3.960938-8.824219-8.828126zm-8.828125-114.761718c.042969-14.605469 11.875-26.4375 26.480469-26.480469h105.933593c14.605469.042969 26.4375 11.875 26.480469 26.480469v17.65625c-.042969 14.609375-11.875 26.441406-26.480469 26.484375h-105.933593c-14.605469-.042969-26.4375-11.875-26.480469-26.484375zm0 0" data-original="#000000" class="active-path" data-old_color="#000000" fill="#FFFFFF"/></g> </svg>
