<?xml version="1.0"?>
<svg xmlns="http://www.w3.org/2000/svg" height="512px" viewBox="-16 0 512 512" width="512px" class=""><g><path d="m468.113281 375.648438-155.59375-31.136719 31.136719 155.59375 30.417969-30.417969 42.3125 42.3125 63.621093-63.621094-42.316406-42.3125zm0 0" data-original="#000000" class="active-path" data-old_color="#000000" fill="#FFFFFF"/><path d="m224.953125 59.988281h79.527344l-79.527344-53.015625zm0 0" data-original="#000000" class="active-path" data-old_color="#000000" fill="#FFFFFF"/><path d="m74.984375 0v180.960938h66.199219l29.992187 29.996093h143.757813v-120.976562h-119.972656v-89.980469zm0 0" data-original="#000000" class="active-path" data-old_color="#000000" fill="#FFFFFF"/><path d="m344.929688 120.976562h44.992187v89.980469h-44.992187zm0 0" data-original="#000000" class="active-path" data-old_color="#000000" fill="#FFFFFF"/><path d="m0 120.976562h44.992188v59.984376h-44.992188zm0 0" data-original="#000000" class="active-path" data-old_color="#000000" fill="#FFFFFF"/><path d="m389.921875 240.949219h-231.164063l-29.996093-29.992188h-128.761719v210.957031h297.421875l-23.140625-115.640624 115.640625 23.144531zm0 0" data-original="#000000" class="active-path" data-old_color="#000000" fill="#FFFFFF"/></g> </svg>
