<?xml version="1.0" encoding="iso-8859-1"?>
<!-- Generator: Adobe Illustrator 16.0.0, SVG Export Plug-In . SVG Version: 6.00 Build 0)  -->
<!DOCTYPE svg PUBLIC "-//W3C//DTD SVG 1.1//EN" "http://www.w3.org/Graphics/SVG/1.1/DTD/svg11.dtd">
<svg version="1.1" id="Capa_1" xmlns="http://www.w3.org/2000/svg" xmlns:xlink="http://www.w3.org/1999/xlink" x="0px" y="0px"
	 width="29.538px" height="29.538px" viewBox="0 0 29.538 29.538" style="enable-background:new 0 0 29.538 29.538;"
	 xml:space="preserve">
<g>
	<path d="M11.305,0.807L11.544,0h14.422l-0.284,0.807c-1.307,0-2.305,0.289-2.994,0.871c-0.688,0.58-1.297,1.793-1.818,3.637
		l-5.401,18.908c-0.394,1.336-0.589,2.23-0.589,2.68c0,0.523,0.204,0.931,0.609,1.222c0.521,0.377,1.512,0.58,2.964,0.608
		l-0.22,0.806H3.572l0.24-0.806c1.467,0,2.541-0.28,3.225-0.838c0.683-0.561,1.3-1.783,1.852-3.672l5.446-18.908
		c0.333-1.162,0.501-2.041,0.501-2.635c0-0.537-0.203-0.959-0.609-1.266C13.817,1.11,12.844,0.909,11.305,0.807z"/>
</g>
<g>
</g>
<g>
</g>
<g>
</g>
<g>
</g>
<g>
</g>
<g>
</g>
<g>
</g>
<g>
</g>
<g>
</g>
<g>
</g>
<g>
</g>
<g>
</g>
<g>
</g>
<g>
</g>
<g>
</g>
</svg>
