<?xml version="1.0"?>
<svg xmlns="http://www.w3.org/2000/svg" height="512px" viewBox="0 0 512 512" width="512px" class=""><g><path d="m465.96875 405.953125h-60.089844v-99.550781c10.96875-5.460938 22.007813-13.570313 34.171875-25.734375 10.628907-10.640625 20.195313-22.417969 28.433594-35.007813 1.402344-2.140625 1.632813-4.839844.617187-7.183594-1.015624-2.347656-3.144531-4.027343-5.660156-4.46875l-17.890625-3.148437c37.828125-28.726563 61.585938-72.449219 64.515625-120.117187l.019532-.246094c.023437-.324219.042968-.652344.054687-.96875.070313-2.136719-.757813-4.207032-2.289063-5.699219s-3.613281-2.269531-5.757812-2.144531c-17.460938 1.023437-34.417969 3.292968-50.394531 6.746094-4.105469.886718-6.714844 4.933593-5.828125 9.035156.886718 4.105468 4.933594 6.714844 9.039062 5.828125 12.53125-2.707031 25.71875-4.652344 39.304688-5.804688-5.226563 45.695313-31.597656 86.625-71.617188 110.5625l-.824218.484375c-2.738282 1.621094-4.175782 4.777344-3.605469 7.90625.570312 3.132813 3.027343 5.574219 6.160156 6.125l24.757813 4.355469c-6.019532 8.144531-12.648438 15.847656-19.792969 22.996094-29.753907 29.753906-50.277344 31.984375-87.722657 32.988281 6.585938-5.960938 13.082032-12.128906 19.460938-18.507812 31.890625-31.890626 58.640625-66.460938 79.503906-102.746094 1.714844-2.980469 1.214844-6.738282-1.214844-9.167969-2.429687-2.429687-6.1875-2.929687-9.164062-1.214844-36.289062 20.871094-70.855469 47.617188-102.746094 79.507813-6.382812 6.382812-12.546875 12.875-18.511718 19.464844 1.007812-37.457032 3.230468-57.976563 32.988281-87.730469 23.011719-23.015625 51.449219-40.316407 84.519531-51.421875 3.980469-1.335938 6.125-5.648438 4.785156-9.628906-1.335937-3.980469-5.644531-6.125-9.625-4.785157-5.347656 1.792969-10.566406 3.761719-15.6875 5.859375v-62.085937c0-33.332031-27.113281-60.449219-60.441406-60.449219h-284.996094c-.015625 0-.027344.00390625-.042968.00390625-33.308594.02734375-60.398438 27.12890575-60.398438 60.44140575 0 25.144532 20.457031 45.601563 45.601562 45.601563h60.085938v232.523437c0 4.199219 3.402344 7.601563 7.601562 7.601563 4.199219 0 7.605469-3.402344 7.605469-7.601563v-278.125c0-17.988281-7.910156-34.15625-20.421875-45.238281h244.964844c24.941406 0 45.234375 20.296875 45.234375 45.242188v68.917969c-22.429687 11.042968-42.375 25.222656-59.539063 42.390624-35.941406 35.9375-36.570312 62.09375-37.621093 105.425782-.085938 3.585937-.175781 7.316406-.289063 11.1875-17.238281 20.90625-32.40625 42.699218-45.316406 65.152344-1.714844 2.976562-1.214844 6.734374 1.210938 9.164062 1.46875 1.464844 3.414062 2.226562 5.382812 2.226562 1.296875 0 2.601562-.332031 3.785156-1.011718 22.453125-12.910156 44.246094-28.082032 65.15625-45.320313 3.851563-.113281 7.5625-.203125 11.132813-.289062 21.933593-.527344 39.46875-.957031 56.097656-5.902344v93.5625h-209.691406c-25.144531 0-45.597657 20.457031-45.597657 45.601563 0 4.199218 3.402344 7.601562 7.601563 7.601562h67.738281c-3.625 21.335938-22.234375 37.636719-44.585937 37.636719-24.945313 0-45.242188-20.292969-45.242188-45.238281v-82.570313c0-4.199219-3.402343-7.605469-7.601562-7.605469s-7.605469 3.40625-7.605469 7.605469v82.570313c0 33.328124 27.117188 60.445312 60.449219 60.445312h284.984375c33.332031 0 60.449218-27.117188 60.449218-60.445312-.003906-25.144532-20.457031-45.601563-45.601562-45.601563zm-360.28125-315.113281h-26.128906c5.628906-6.28125 9.546875-14.121094 11.007812-22.789063h15.121094zm-.636719-37.996094h-21.453125c-4.199218 0-7.601562 3.40625-7.601562 7.601562 0 16.761719-13.636719 30.394532-30.394532 30.394532-16.757812 0-30.394531-13.632813-30.394531-30.394532 0-24.945312 20.296875-45.238281 45.242188-45.238281 22.355469 0 40.972656 16.296875 44.601562 37.636719zm233.109375 208.683594c22.683594-22.679688 46.734375-42.664063 71.796875-59.675782-17.011719 25.058594-37 49.113282-59.679687 71.792969-22.679688 22.679688-46.730469 42.664063-71.792969 59.679688 17.011719-25.066407 37-49.117188 59.675781-71.796875zm-186.613281 182.421875c3.386719-13.089844 15.300781-22.789063 29.433594-22.789063 14.132812 0 26.046875 9.699219 29.429687 22.789063zm299.574219 52.84375h-244.957032c12.511719-11.082031 20.417969-27.25 20.417969-45.238281 0-11.667969-4.410156-22.320313-11.644531-30.394532h251.03125c16.757812 0 30.394531 13.632813 30.394531 30.394532 0 24.945312-20.296875 45.238281-45.242187 45.238281zm0 0" data-original="#000000" class="active-path" data-old_color="#000000" fill="#93644E"/><path d="m155.765625 103.523438c7.109375 0 10.296875 3.15625 15.125 7.9375 5.550781 5.496093 12.460937 12.335937 25.824219 12.335937 13.367187 0 20.273437-6.839844 25.828125-12.335937 4.824219-4.78125 8.015625-7.9375 15.125-7.9375s10.300781 3.15625 15.125 7.9375c5.554687 5.496093 12.460937 12.335937 25.828125 12.335937 13.367187 0 20.277344-6.839844 25.828125-12.335937 4.828125-4.78125 8.015625-7.9375 15.128906-7.9375s10.300781 3.15625 15.128906 7.9375c5.554688 5.496093 12.460938 12.335937 25.828125 12.335937 4.199219 0 7.605469-3.402344 7.605469-7.601563 0-4.199218-3.40625-7.605468-7.605469-7.605468-7.113281 0-10.300781-3.15625-15.128906-7.9375-5.554688-5.496094-12.460938-12.335938-25.828125-12.335938s-20.273437 6.839844-25.828125 12.335938c-4.828125 4.78125-8.015625 7.9375-15.128906 7.9375-7.113282 0-10.300782-3.15625-15.125-7.9375-5.554688-5.496094-12.460938-12.335938-25.828125-12.335938-13.363281 0-20.273438 6.839844-25.824219 12.335938-4.828125 4.78125-8.015625 7.9375-15.128906 7.9375-7.109375 0-10.296875-3.15625-15.125-7.933594-5.550782-5.5-12.460938-12.339844-25.824219-12.339844-4.199219 0-7.605469 3.402344-7.605469 7.601563s3.40625 7.605469 7.605469 7.605469zm0 0" data-original="#000000" class="active-path" data-old_color="#000000" fill="#93644E"/><path d="m155.765625 162.65625c7.109375 0 10.296875 3.15625 15.125 7.933594 5.550781 5.5 12.460937 12.339844 25.824219 12.339844 13.367187 0 20.273437-6.839844 25.828125-12.339844 4.824219-4.777344 8.015625-7.933594 15.125-7.933594s10.300781 3.15625 15.125 7.933594c5.554687 5.5 12.460937 12.339844 25.828125 12.339844 13.367187 0 20.277344-6.839844 25.828125-12.335938 4.828125-4.78125 8.015625-7.9375 15.128906-7.9375 4.199219 0 7.601563-3.40625 7.601563-7.605469s-3.402344-7.601562-7.601563-7.601562c-13.367187 0-20.273437 6.839843-25.828125 12.335937-4.828125 4.78125-8.015625 7.9375-15.128906 7.9375-7.113282 0-10.300782-3.15625-15.125-7.9375-5.554688-5.496094-12.460938-12.335937-25.828125-12.335937-13.363281 0-20.273438 6.839843-25.824219 12.335937-4.828125 4.78125-8.015625 7.9375-15.128906 7.9375-7.109375 0-10.296875-3.15625-15.125-7.9375-5.550782-5.496094-12.460938-12.335937-25.824219-12.335937-4.199219 0-7.605469 3.402343-7.605469 7.601562s3.40625 7.605469 7.605469 7.605469zm0 0" data-original="#000000" class="active-path" data-old_color="#000000" fill="#93644E"/><path d="m263.496094 218.921875c-5.554688-5.5-12.464844-12.339844-25.828125-12.339844-13.367188 0-20.277344 6.839844-25.828125 12.335938-4.828125 4.78125-8.015625 7.9375-15.128906 7.9375-7.105469 0-10.292969-3.15625-15.117188-7.933594-5.550781-5.5-12.460938-12.339844-25.828125-12.339844-4.199219 0-7.605469 3.402344-7.605469 7.601563 0 4.199218 3.40625 7.605468 7.605469 7.605468 7.113281 0 10.300781 3.15625 15.128906 7.9375 5.546875 5.496094 12.457031 12.335938 25.816407 12.335938 13.367187 0 20.273437-6.839844 25.828124-12.335938 4.828126-4.78125 8.015626-7.9375 15.128907-7.9375 7.109375 0 10.300781 3.15625 15.128906 7.9375 5.550781 5.496094 12.460937 12.335938 25.824219 12.335938 4.203125 0 7.605468-3.402344 7.605468-7.601562 0-4.199219-3.402343-7.605469-7.605468-7.605469-7.109375.003906-10.296875-3.15625-15.125-7.933594zm0 0" data-original="#000000" class="active-path" data-old_color="#000000" fill="#93644E"/></g> </svg>
