<?xml version="1.0"?>
<svg xmlns="http://www.w3.org/2000/svg" xmlns:xlink="http://www.w3.org/1999/xlink" version="1.1" id="Capa_1" x="0px" y="0px" viewBox="0 0 512 512" style="enable-background:new 0 0 512 512;" xml:space="preserve" width="512px" height="512px" class=""><g><g>
	<g>
		<path d="M286,0h-60c-41.353,0-75,33.647-75,75v45h90c16.538,0,30-13.462,30-30V75h30v15c0,16.538,13.462,30,30,30h30V75    C361,33.647,327.353,0,286,0z" data-original="#000000" class="active-path" data-old_color="#000000" fill="#FFFFFF"/>
	</g>
</g><g>
	<g>
		<path d="M331,150c-18.007,0-33.995-8.134-45-20.729C274.995,141.866,259.007,150,241,150h-90v17c0,57.891,47.109,105,105,105    s105-47.109,105-105v-17H331z" data-original="#000000" class="active-path" data-old_color="#000000" fill="#FFFFFF"/>
	</g>
</g><g>
	<g>
		<path d="M121,302.073v206.083c39.124-13.336,80.892-13.284,120-0.038V302.716C201.665,291.323,160.331,290.693,121,302.073z" data-original="#000000" class="active-path" data-old_color="#000000" fill="#FFFFFF"/>
	</g>
</g><g>
	<g>
		<path d="M271,302.72v205.399c39.108-13.246,80.876-13.297,120,0.038V302.079C351.663,290.708,310.333,291.336,271,302.72z" data-original="#000000" class="active-path" data-old_color="#000000" fill="#FFFFFF"/>
	</g>
</g><g>
	<g>
		<path d="M61,422c-16.569,0-30,13.431-30,30v30c0,16.567,13.431,30,30,30h30v-90H61z" data-original="#000000" class="active-path" data-old_color="#000000" fill="#FFFFFF"/>
	</g>
</g><g>
	<g>
		<path d="M33.219,399.137C41.565,394.732,50.922,392,61,392h30v-92.845C61.341,314.367,39.708,341.917,33.219,399.137z" data-original="#000000" class="active-path" data-old_color="#000000" fill="#FFFFFF"/>
	</g>
</g><g>
	<g>
		<path d="M451,422h-30v90h30c16.569,0,30-13.433,30-30v-30C481,435.431,467.569,422,451,422z" data-original="#000000" class="active-path" data-old_color="#000000" fill="#FFFFFF"/>
	</g>
</g><g>
	<g>
		<path d="M421,299.16V392h30c10.076,0,19.435,2.732,27.781,7.137C472.294,341.924,450.663,314.372,421,299.16z" data-original="#000000" class="active-path" data-old_color="#000000" fill="#FFFFFF"/>
	</g>
</g></g> </svg>
