<?xml version="1.0"?>
<svg xmlns="http://www.w3.org/2000/svg" id="Capa_1" enable-background="new 0 0 512 512" height="512px" viewBox="0 0 512 512" width="512px" class=""><g><path d="m423.923 156.984c-2.371-22.322-7.238-45.14-25.361-45.14-12.094 0-17.698 10.881-20.394 19.156-1.475-29.617-3.597-51.355-6.462-66.653-3.308-17.66-9.326-37.93-26.638-37.93-16.795 0-22.798 19.53-26.151 36.545-1.524 7.732-2.844 17.111-3.979 28.32-1.305-21.161-3.006-37.654-5.141-50.126-3.483-20.352-9.44-41.156-27.215-41.156-17.963 0-23.963 22.197-27.462 43.91-1.863 11.557-3.388 26.281-4.6 44.634-1.021-9.764-2.189-18.053-3.515-24.99-3.314-17.335-9.322-37.233-26.507-37.233-18.764 0-24.695 23.81-28.309 49.541-.577 4.107 2.284 7.904 6.392 8.481 4.101.578 7.904-2.284 8.481-6.392 4.642-33.043 10.943-36.61 13.436-36.61 6.064 0 9.967 15.684 11.754 25.033 4.171 21.82 6.738 57.966 8.019 113.22-7.876-2.617-16.981-4.349-27.29-4.349-4.244 0-8.282.303-12.12.836.651-25.642 1.583-46.811 2.837-64.462.293-4.137-2.822-7.73-6.958-8.024-4.14-.292-7.73 2.822-8.024 6.958-1.335 18.775-2.307 41.409-2.967 69.055-17.115 5.701-28.439 15.563-33.504 20.732-3.27 3.333-5.07 7.749-5.07 12.433v45.73c-15.253-14.222-38.055-31.125-53.027-22.318-2.615 1.54-6.116 4.625-7.95 10.579-2.247 7.3-1.018 15.322 3.372 22.005 2.429 3.701 4.772 7.466 6.963 11.191 13.265 22.542 20.194 40.187 20.593 52.446.298 9.133 2.725 17.835 7.02 25.169l.506.86c22.759 38.676 57.491 73.599 82.086 83.326v46.563c0 13.055 10.621 23.676 23.676 23.676h150.775c13.055 0 23.676-10.621 23.676-23.676v-28.562c0-4.148-3.362-7.51-7.51-7.51s-7.51 3.362-7.51 7.51v28.562c0 4.774-3.883 8.657-8.657 8.657h-150.774c-4.774 0-8.657-3.883-8.657-8.657v-52.012c0-3.467-2.373-6.483-5.744-7.299-18.246-4.416-54.111-36.89-78.416-78.194l-.492-.836c-3.032-5.18-4.75-11.427-4.967-18.066-.489-15.006-7.901-34.493-22.66-59.572-2.315-3.936-4.788-7.912-7.353-11.818-1.924-2.931-2.497-6.336-1.571-9.342.23-.747.628-1.71 1.214-2.056 3.929-2.312 21.147 4.432 45.407 30.615v65.428c0 5.089 2.849 9.612 7.436 11.807 1.819.87 3.752 1.298 5.67 1.298 2.919 0 5.802-.991 8.195-2.919 7.718-6.222 20.671-13.94 38.554-15.378 4.134-.332 7.215-3.953 6.883-8.088-.332-4.133-3.934-7.224-8.088-6.883-19.43 1.563-34.063 9.234-43.632 16.24v-128.476c0-.728.275-1.408.775-1.919 6.067-6.191 23.087-20.59 50.011-20.59 28.506 0 45.703 15.891 50.786 21.372v126.137c0 .715-.316 1.246-.939 1.578-.447.239-1.146.411-1.922-.111-5.413-3.635-11.223-6.645-17.267-8.946-3.875-1.476-8.215.469-9.69 4.345-1.477 3.876.469 8.215 4.345 9.69 4.98 1.896 9.77 4.379 14.238 7.38 5.198 3.489 11.85 3.834 17.361.895.479-.255.936-.539 1.383-.835.447.296.904.58 1.383.835 5.513 2.938 12.164 2.596 17.361-.895 1.972-1.324 4.263-2.709 6.85-4.048v17.981c0 4.148 3.362 7.51 7.51 7.51s7.51-3.362 7.51-7.51v-23.695c5.282-1.347 11.184-2.207 17.683-2.207 20.772 0 35.666 8.491 44.505 15.616 2.392 1.927 5.274 2.918 8.194 2.918 1.918 0 3.852-.427 5.67-1.298 4.587-2.195 7.436-6.719 7.436-11.807v-132.396c0-4.684-1.8-9.1-5.068-12.432-1.136-1.159-2.59-2.556-4.35-4.087.775-25.961 2.351-43.443 4.939-54.785 2.088-9.146 4.952-14.606 7.661-14.606 1.655 0 7.3 2.286 10.426 31.708 2.66 25.031 2.894 162.11 2.894 162.11 0 14.073-3.269 27.493-9.717 39.887-8.059 15.492-12.32 32.489-12.32 49.156v15.993c0 4.148 3.362 7.51 7.51 7.51s7.51-3.362 7.51-7.51v-15.993c0-14.264 3.674-28.864 10.624-42.225 7.466-14.352 11.412-30.541 11.412-46.818.004 0-.238-137.942-2.974-163.697zm-90.27-91.118c3.06-15.526 7.22-24.43 11.415-24.43 6.148 0 10.078 16.087 11.875 25.676 4.171 22.268 6.723 59.201 7.969 115.671-9.51-4.295-21.322-7.538-35.338-7.538-1.397 0-2.768.037-4.12.099 1.366-53.178 3.987-88.103 8.199-109.478zm-71.459 124.756c.887-71.108 3.356-117.044 7.753-144.321 3.204-19.88 7.81-31.282 12.634-31.282 6.529 0 10.579 17.963 12.412 28.67 4.355 25.446 6.859 68.667 7.853 135.729-14.948 4.852-25.532 12.908-31.569 18.536-2.347-2.187-5.373-4.739-9.083-7.332zm118.166 150.625c-10.958-8.031-27.947-16.524-50.786-16.524-21.739 0-38.061 7.895-47.924 14.519-.78.523-1.477.348-1.923.111-.623-.332-.939-.863-.939-1.578v-126.123c5.081-5.438 22.408-21.387 50.786-21.387 26.923 0 43.944 14.399 50.013 20.591.499.509.773 1.19.773 1.918z" data-original="#000000" class="active-path" data-old_color="#000000" fill="#FFFFFF"/><path d="m345.577 235.453h-35.152c-4.148 0-7.51 3.362-7.51 7.51s3.362 7.51 7.51 7.51h35.152c4.148 0 7.51-3.362 7.51-7.51s-3.362-7.51-7.51-7.51z" data-original="#000000" class="active-path" data-old_color="#000000" fill="#FFFFFF"/><path d="m345.577 264.71h-35.152c-4.148 0-7.51 3.362-7.51 7.51s3.362 7.51 7.51 7.51h35.152c4.148 0 7.51-3.362 7.51-7.51 0-4.149-3.362-7.51-7.51-7.51z" data-original="#000000" class="active-path" data-old_color="#000000" fill="#FFFFFF"/><path d="m193.453 250.472h35.152c4.148 0 7.51-3.362 7.51-7.51s-3.362-7.51-7.51-7.51h-35.152c-4.148 0-7.51 3.362-7.51 7.51 0 4.149 3.362 7.51 7.51 7.51z" data-original="#000000" class="active-path" data-old_color="#000000" fill="#FFFFFF"/><path d="m193.453 279.729h35.152c4.148 0 7.51-3.362 7.51-7.51s-3.362-7.51-7.51-7.51h-35.152c-4.148 0-7.51 3.362-7.51 7.51s3.362 7.51 7.51 7.51z" data-original="#000000" class="active-path" data-old_color="#000000" fill="#FFFFFF"/></g> </svg>
