<?xml version="1.0"?>
<svg xmlns="http://www.w3.org/2000/svg" height="512px" viewBox="-16 0 512 512" width="512px" class=""><g><path d="m83.789062 90h66.210938v-66.210938zm0 0" data-original="#000000" class="active-path" data-old_color="#000000" fill="#FFFFFF"/><path d="m75 421h330v-421h-225v120h-105zm165-331h90v30h-90zm-120 60h240v30h-240zm0 60h240v30h-240zm0 60h240v30h-240zm0 61h90v30h-90zm0 0" data-original="#000000" class="active-path" data-old_color="#000000" fill="#FFFFFF"/><path d="m0 361h45v60h-45zm0 0" data-original="#000000" class="active-path" data-old_color="#000000" fill="#FFFFFF"/><path d="m435 361h45v60h-45zm0 0" data-original="#000000" class="active-path" data-old_color="#000000" fill="#FFFFFF"/><path d="m0 451h480v61h-480zm0 0" data-original="#000000" class="active-path" data-old_color="#000000" fill="#FFFFFF"/></g> </svg>
